HIERARCHY
ROOT Hips
{
	OFFSET -3.958830 18.904000 13.208200
	CHANNELS 6 Xposition Yposition Zposition Zrotation Yrotation Xrotation 
	JOINT LHipJoint
	{
		OFFSET 0.000000 0.000000 0.000000
		CHANNELS 3 Zrotation Yrotation Xrotation
		JOINT LeftUpLeg
		{
			OFFSET 1.800000 -1.400000 0.085000
			CHANNELS 3 Zrotation Yrotation Xrotation
			JOINT LeftLeg
			{
				OFFSET 2.215000 -6.000000 0.000000
				CHANNELS 3 Zrotation Yrotation Xrotation
				JOINT LeftFoot
				{
					OFFSET 2.500000 -6.900000 0.000000
					CHANNELS 3 Zrotation Yrotation Xrotation
					JOINT LeftToeBase
					{
						OFFSET 0.200000 -0.500000 1.950000
						CHANNELS 3 Zrotation Yrotation Xrotation
						End Site
						{
							OFFSET 0.000000 0.000000 0.000000
						}
					}
				}
			}
		}
	}
	JOINT RHipJoint
	{
		OFFSET 0.000000 0.000000 0.000000
		CHANNELS 3 Zrotation Yrotation Xrotation
		JOINT RightUpLeg
		{
			OFFSET -1.800000 -1.400000 0.085000
			CHANNELS 3 Zrotation Yrotation Xrotation
			JOINT RightLeg
			{
				OFFSET -2.215000 -6.000000 0.000000
				CHANNELS 3 Zrotation Yrotation Xrotation
				JOINT RightFoot
				{
					OFFSET -2.500000 -6.900000 0.000000
					CHANNELS 3 Zrotation Yrotation Xrotation
					JOINT RightToeBase
					{
						OFFSET -0.200000 -0.500000 1.950000
						CHANNELS 3 Zrotation Yrotation Xrotation
						End Site
						{
							OFFSET 0.000000 0.000000 0.000000
						}
					}
				}
			}
		}
	}
	JOINT LowerBack
	{
		OFFSET 0.000000 0.000000 0.000000
		CHANNELS 3 Zrotation Yrotation Xrotation
		JOINT Spine
		{
			OFFSET -0.087000 1.940000 -0.288900
			CHANNELS 3 Zrotation Yrotation Xrotation
			JOINT Spine1
			{
				OFFSET 0.000000 1.950000 0.060000
				CHANNELS 3 Zrotation Yrotation Xrotation
				JOINT Neck
				{
					OFFSET 0.000000 0.000000 0.000000
					CHANNELS 3 Zrotation Yrotation Xrotation
					JOINT Neck1
					{
						OFFSET 0.000000 1.600000 0.340000
						CHANNELS 3 Zrotation Yrotation Xrotation
						JOINT Head
						{
							OFFSET 0.000000 1.667000 -0.240000
							CHANNELS 3 Zrotation Yrotation Xrotation
							End Site
							{
								OFFSET 0.000000 0.000000 0.000000
							}
						}
					}
				}
				JOINT LeftShoulder
				{
					OFFSET 0.000000 0.000000 0.000000
					CHANNELS 3 Zrotation Yrotation Xrotation
					JOINT LeftArm
					{
						OFFSET 2.700000 1.550000 -0.730000
						CHANNELS 3 Zrotation Yrotation Xrotation
						JOINT LeftForeArm
						{
							OFFSET 5.450000 0.000000 0.000000
							CHANNELS 3 Zrotation Yrotation Xrotation
							JOINT LeftHand
							{
								OFFSET 3.450000 0.000000 0.000000
								CHANNELS 3 Zrotation Yrotation Xrotation
								JOINT LeftHandIndex1
								{
									OFFSET 0.750000 0.000000 0.000000
									CHANNELS 3 Zrotation Yrotation Xrotation
									End Site
									{
										OFFSET 0.000000 0.000000 0.000000
									}
								}
							}
						}
					}
				}
				JOINT RightShoulder
				{
					OFFSET 0.000000 0.000000 0.000000
					CHANNELS 3 Zrotation Yrotation Xrotation
					JOINT RightArm
					{
						OFFSET -2.700000 1.550000 -0.730000
						CHANNELS 3 Zrotation Yrotation Xrotation
						JOINT RightForeArm
						{
							OFFSET -5.450000 0.000000 0.000000
							CHANNELS 3 Zrotation Yrotation Xrotation
							JOINT RightHand
							{
								OFFSET -3.450000 0.000000 0.000000
								CHANNELS 3 Zrotation Yrotation Xrotation
								JOINT RightHandIndex1
								{
									OFFSET -0.750000 0.000000 0.000000
									CHANNELS 3 Zrotation Yrotation Xrotation
									End Site
									{
										OFFSET 0.000000 0.000000 0.000000
									}
								}
							}
						}
					}
				}
			}
		}
	}
}
MOTION
Frames: 4
Frame Time: 0.016667
-1.657170 17.500640 -2.665200 -149.916766 -30.638701 143.253020 -15.196892 11.828615 2.715303 22.995804 -0.936019 8.390201 -8.506070 6.215983 -0.192290 0.449493 5.840389 2.552039 0.651770 0.408810 0.556510 18.484335 -8.228006 5.243662 -27.232686 2.823212 -36.191706 85.809130 -48.950234 31.534787 -2.861008 -11.518594 0.641894 0.068920 -0.365210 0.062030 -4.349634 -2.105576 -9.550566 34.139767 -11.407709 24.986439 -5.786211 -7.039310 15.750551 4.317626 5.024047 -19.038350 6.837641 -16.141021 48.067873 13.458030 -16.181860 -22.406840 -18.955195 -35.444693 14.675088 -29.666716 -6.674669 -11.785747 -112.885556 -77.510836 85.467318 -3.257088 2.296156 0.661270 -0.453670 0.338520 0.114780 9.333334 32.886388 12.994878 30.754398 10.690991 -23.314529 -5.908559 86.724315 -18.516726 1.861359 -1.545718 0.095590 -0.006470 -0.299650 -0.145200 
-1.738150 17.513000 -2.636110 -152.774837 -20.298629 149.284052 -14.957390 11.371508 2.682286 23.125216 -1.153053 9.110736 -9.000246 6.212211 -0.965424 0.334588 6.012593 2.532777 0.452290 0.207140 0.399200 18.722585 -8.579348 5.280913 -23.521554 4.340261 -37.536108 79.308145 -50.590657 36.710304 -2.843792 -11.961503 0.545404 0.028120 -0.175840 -0.016180 -4.736869 -1.024891 -9.443671 36.339437 -11.853467 23.255169 -7.759709 -7.353318 18.495221 4.194598 5.636880 -19.620981 8.614328 -20.404534 48.507509 16.420890 -21.155480 -22.632160 -17.314736 -37.628677 14.619893 -29.505249 -8.671963 -12.798619 -115.192879 -78.077902 88.622205 -3.393037 1.958986 0.657520 -0.374880 0.219140 0.051040 8.274577 34.589038 14.225332 31.457190 13.592587 -23.741182 2.992599 88.468720 -13.917223 1.764097 -1.537934 -0.050510 0.188640 -0.120140 -0.128760 
-1.769200 17.548430 -2.636100 -156.022932 -14.946826 152.143539 -14.877165 11.447266 2.453653 20.535404 -0.723427 9.767856 -7.450393 6.071827 0.528933 0.212660 5.704324 2.647040 0.451720 0.298160 0.219040 18.775718 -9.035368 5.188401 -22.909330 2.314521 -34.900485 75.634515 -52.472260 40.088083 -2.796703 -12.125869 0.497796 0.145670 -0.029400 -0.102000 -4.815269 -0.692427 -9.274301 29.562836 -11.660018 23.115396 -4.222797 -10.308207 26.757095 3.399024 4.610829 -21.073070 7.802822 -22.929794 46.724958 21.557830 -25.393180 -24.954910 -9.455639 -43.637782 14.424727 -28.197347 -12.297592 -19.392214 -122.952717 -81.909629 100.982847 -3.128859 1.735600 0.557770 -0.351980 0.112620 0.106040 4.108250 41.439606 16.395418 29.957148 15.397962 -33.203810 -42.242463 87.639851 -51.012891 1.878539 -0.247544 -0.083700 0.327940 -0.060390 -0.014890 
-1.828270 17.565170 -2.625270 -157.147773 -8.980928 156.357193 -14.786536 11.014559 2.297427 19.930717 -1.269011 8.629009 -8.490823 5.996925 0.829555 0.006464 5.746828 2.678267 0.465610 0.336420 0.096210 18.928330 -9.204040 5.293079 -21.460470 0.279997 -38.234614 68.841003 -55.201832 46.000052 -2.825969 -12.755130 0.342871 0.295870 0.204030 -0.138110 -5.042812 -0.020475 -9.156001 25.916647 -11.857377 20.183385 -2.543624 -12.510870 33.982552 3.678039 4.795577 -22.145155 10.730224 -23.815085 42.067784 20.654280 -26.054150 -22.511620 -0.104055 -43.749257 12.163642 -28.799885 -16.054262 -22.590315 -156.767634 -85.767692 136.990187 -2.700641 2.794866 0.457490 -0.225480 -0.055170 0.178320 -3.728950 44.333891 20.672126 30.176698 22.576563 -39.000138 -73.736219 81.081046 -66.370751 2.715882 -0.670496 -0.190740 0.499190 0.019280 0.044620 
